STARTFONT 2.1
FONT -Monotype-Arial Narrow-Bold-R-Normal--18-180-75-75-P-75-iso8859-9
SIZE 18 75 75
FONTBOUNDINGBOX 18 22 -2 -4

STARTPROPERTIES 24
FOUNDRY "Monotype"
FAMILY_NAME "Arial Narrow"
WEIGHT_NAME "Bold"
SLANT "R"
SETWIDTH_NAME "Normal"
ADD_STYLE_NAME ""
PIXEL_SIZE 18
POINT_SIZE 180
RESOLUTION_X 75
RESOLUTION_Y 75
SPACING "P"
AVERAGE_WIDTH 75
CHARSET_REGISTRY "iso8859"
CHARSET_ENCODING "9"
FACE_NAME "Arial Narrow Bold ISO Latin5"
_DEC_DEVICE_FONTNAMES "PS=arialnarrow-b-lat5"
COPYRIGHT "Copyright (c) 1994 Monotype Typography Ltd."
CAP_HEIGHT 15
X_HEIGHT 11
WEIGHT 10
QUAD_WIDTH 10
DEFAULT_CHAR 160
FONT_DESCENT 4
FONT_ASCENT 18
ENDPROPERTIES

CHARS 191

STARTCHAR space
ENCODING 32
SWIDTH 228 0
DWIDTH 4 0
BBX 0 0 0 0
BITMAP
ENDCHAR

STARTCHAR exclam
ENCODING 33
SWIDTH 273 0
DWIDTH 5 0
BBX 3 14 1 0
BITMAP
E0
E0
E0
E0
E0
E0
E0
E0
E0
E0
00
E0
E0
E0
ENDCHAR

STARTCHAR quotedbl
ENCODING 34
SWIDTH 389 0
DWIDTH 7 0
BBX 5 5 1 9
BITMAP
D8
D8
D8
D8
D8
ENDCHAR

STARTCHAR numbersign
ENCODING 35
SWIDTH 456 0
DWIDTH 9 0
BBX 9 14 0 0
BITMAP
1B00
1B00
1B00
3600
FF80
FF80
3600
3600
FF80
FF80
6C00
6C00
6C00
6C00
ENDCHAR

STARTCHAR dollar
ENCODING 36
SWIDTH 456 0
DWIDTH 9 0
BBX 7 17 1 -2
BITMAP
10
38
7C
D6
D6
D0
F0
7C
1E
16
D6
D6
FE
7C
38
10
10
ENDCHAR

STARTCHAR percent
ENCODING 37
SWIDTH 729 0
DWIDTH 14 0
BBX 12 14 1 0
BITMAP
2180
7180
D980
DB00
DB00
7300
2600
0640
0CE0
0DB0
19B0
19B0
30E0
3040
ENDCHAR

STARTCHAR ampersand
ENCODING 38
SWIDTH 592 0
DWIDTH 11 0
BBX 10 14 1 0
BITMAP
3C00
7E00
6600
6600
3C00
3800
3800
7CC0
FD80
EF00
E700
E7C0
FFC0
7980
ENDCHAR

STARTCHAR quoteright
ENCODING 39
SWIDTH 228 0
DWIDTH 4 0
BBX 3 6 1 8
BITMAP
E0
E0
E0
60
60
C0
ENDCHAR

STARTCHAR parenleft
ENCODING 40
SWIDTH 273 0
DWIDTH 5 0
BBX 4 18 1 -4
BITMAP
30
60
60
60
60
C0
C0
C0
C0
C0
C0
C0
C0
60
60
60
60
30
ENDCHAR

STARTCHAR parenright
ENCODING 41
SWIDTH 273 0
DWIDTH 5 0
BBX 4 18 1 -4
BITMAP
C0
60
60
60
60
30
30
30
30
30
30
30
30
60
60
60
60
C0
ENDCHAR

STARTCHAR asterisk
ENCODING 42
SWIDTH 319 0
DWIDTH 6 0
BBX 6 7 0 7
BITMAP
30
30
EC
FC
38
6C
6C
ENDCHAR

STARTCHAR plus
ENCODING 43
SWIDTH 479 0
DWIDTH 9 0
BBX 8 10 1 2
BITMAP
18
18
18
18
FF
FF
18
18
18
18
ENDCHAR

STARTCHAR comma
ENCODING 44
SWIDTH 228 0
DWIDTH 4 0
BBX 3 6 1 -3
BITMAP
E0
E0
E0
60
60
C0
ENDCHAR

STARTCHAR minus
ENCODING 45
SWIDTH 479 0
DWIDTH 9 0
BBX 8 2 1 6
BITMAP
FF
FF
ENDCHAR

STARTCHAR period
ENCODING 46
SWIDTH 228 0
DWIDTH 4 0
BBX 3 3 1 0
BITMAP
E0
E0
E0
ENDCHAR

STARTCHAR slash
ENCODING 47
SWIDTH 228 0
DWIDTH 4 0
BBX 4 15 0 -1
BITMAP
30
30
30
30
30
60
60
60
60
60
C0
C0
C0
C0
C0
ENDCHAR

STARTCHAR zero
ENCODING 48
SWIDTH 456 0
DWIDTH 9 0
BBX 8 14 1 0
BITMAP
3C
7E
E7
E7
E7
E7
E7
E7
E7
E7
E7
E7
7E
3C
ENDCHAR

STARTCHAR one
ENCODING 49
SWIDTH 456 0
DWIDTH 9 0
BBX 6 14 2 0
BITMAP
1C
1C
3C
7C
DC
9C
1C
1C
1C
1C
1C
1C
1C
1C
ENDCHAR

STARTCHAR two
ENCODING 50
SWIDTH 456 0
DWIDTH 9 0
BBX 7 14 1 0
BITMAP
38
7C
EE
EE
0E
0E
0E
1C
38
38
70
E0
FE
FE
ENDCHAR

STARTCHAR three
ENCODING 51
SWIDTH 456 0
DWIDTH 9 0
BBX 8 14 1 0
BITMAP
3C
7E
E7
E7
07
07
1E
1E
07
07
E7
E7
FE
7C
ENDCHAR

STARTCHAR four
ENCODING 52
SWIDTH 456 0
DWIDTH 9 0
BBX 8 14 1 0
BITMAP
06
0E
0E
1E
1E
3E
6E
6E
CE
FF
FF
0E
0E
0E
ENDCHAR

STARTCHAR five
ENCODING 53
SWIDTH 456 0
DWIDTH 9 0
BBX 8 14 1 0
BITMAP
7F
7F
70
70
E0
FC
FE
E7
07
07
E7
E7
FE
7C
ENDCHAR

STARTCHAR six
ENCODING 54
SWIDTH 456 0
DWIDTH 9 0
BBX 8 14 1 0
BITMAP
3E
7F
E7
E7
E0
FE
FF
E7
E7
E7
E7
E7
7E
3C
ENDCHAR

STARTCHAR seven
ENCODING 55
SWIDTH 456 0
DWIDTH 9 0
BBX 7 14 2 0
BITMAP
FE
FE
0E
1C
1C
38
38
38
70
70
70
E0
E0
E0
ENDCHAR

STARTCHAR eight
ENCODING 56
SWIDTH 456 0
DWIDTH 9 0
BBX 8 14 1 0
BITMAP
3C
7E
E7
E7
E7
7E
7E
E7
E7
E7
E7
E7
7E
3C
ENDCHAR

STARTCHAR nine
ENCODING 57
SWIDTH 456 0
DWIDTH 9 0
BBX 8 14 1 0
BITMAP
3C
7E
E7
E7
E7
E7
E7
FF
7F
07
E7
E7
7E
3C
ENDCHAR

STARTCHAR colon
ENCODING 58
SWIDTH 273 0
DWIDTH 5 0
BBX 3 10 1 0
BITMAP
E0
E0
E0
00
00
00
00
E0
E0
E0
ENDCHAR

STARTCHAR semicolon
ENCODING 59
SWIDTH 273 0
DWIDTH 5 0
BBX 3 13 1 -3
BITMAP
E0
E0
E0
00
00
00
00
E0
E0
E0
60
60
C0
ENDCHAR

STARTCHAR less
ENCODING 60
SWIDTH 479 0
DWIDTH 9 0
BBX 7 10 1 2
BITMAP
02
06
1E
78
E0
E0
78
1E
06
02
ENDCHAR

STARTCHAR equal
ENCODING 61
SWIDTH 479 0
DWIDTH 9 0
BBX 8 6 1 4
BITMAP
FF
FF
00
00
FF
FF
ENDCHAR

STARTCHAR greater
ENCODING 62
SWIDTH 479 0
DWIDTH 9 0
BBX 7 10 1 2
BITMAP
80
C0
F0
3C
0E
0E
3C
F0
C0
80
ENDCHAR

STARTCHAR question
ENCODING 63
SWIDTH 501 0
DWIDTH 10 0
BBX 8 14 1 0
BITMAP
3C
7E
E7
E7
07
07
0E
1C
1C
1C
00
1C
1C
1C
ENDCHAR

STARTCHAR at
ENCODING 64
SWIDTH 800 0
DWIDTH 15 0
BBX 15 18 0 -4
BITMAP
07C0
1FF0
3838
3018
636C
6FEC
CCEC
D86C
D8CC
D8CC
D8CC
D9D8
CFF0
66E0
600E
381C
1FF8
07E0
ENDCHAR

STARTCHAR A
ENCODING 65
SWIDTH 592 0
DWIDTH 11 0
BBX 11 14 0 0
BITMAP
0E00
0E00
1F00
1F00
1B00
3B80
3B80
3180
71C0
7FC0
7FC0
E0E0
E0E0
E0E0
ENDCHAR

STARTCHAR B
ENCODING 66
SWIDTH 592 0
DWIDTH 11 0
BBX 9 14 1 0
BITMAP
FE00
FF00
E380
E380
E380
E380
FF00
FF00
E380
E380
E380
E380
FF00
FE00
ENDCHAR

STARTCHAR C
ENCODING 67
SWIDTH 592 0
DWIDTH 11 0
BBX 9 14 1 0
BITMAP
1E00
3F00
7380
7380
E000
E000
E000
E000
E000
E000
7380
7380
3F00
1E00
ENDCHAR

STARTCHAR D
ENCODING 68
SWIDTH 592 0
DWIDTH 11 0
BBX 9 14 1 0
BITMAP
FC00
FE00
E700
E700
E380
E380
E380
E380
E380
E380
E700
E700
FE00
FC00
ENDCHAR

STARTCHAR E
ENCODING 69
SWIDTH 547 0
DWIDTH 10 0
BBX 8 14 1 0
BITMAP
FF
FF
E0
E0
E0
E0
FF
FF
E0
E0
E0
E0
FF
FF
ENDCHAR

STARTCHAR F
ENCODING 70
SWIDTH 501 0
DWIDTH 10 0
BBX 8 14 1 0
BITMAP
FF
FF
E0
E0
E0
E0
FE
FE
E0
E0
E0
E0
E0
E0
ENDCHAR

STARTCHAR G
ENCODING 71
SWIDTH 638 0
DWIDTH 12 0
BBX 10 14 1 0
BITMAP
1F00
3F80
71C0
71C0
E000
E000
E000
E7C0
E7C0
E1C0
71C0
71C0
3F80
1F00
ENDCHAR

STARTCHAR H
ENCODING 72
SWIDTH 592 0
DWIDTH 11 0
BBX 9 14 1 0
BITMAP
E380
E380
E380
E380
E380
E380
FF80
FF80
E380
E380
E380
E380
E380
E380
ENDCHAR

STARTCHAR I
ENCODING 73
SWIDTH 228 0
DWIDTH 5 0
BBX 3 14 1 0
BITMAP
E0
E0
E0
E0
E0
E0
E0
E0
E0
E0
E0
E0
E0
E0
ENDCHAR

STARTCHAR J
ENCODING 74
SWIDTH 456 0
DWIDTH 9 0
BBX 8 14 0 0
BITMAP
07
07
07
07
07
07
07
07
07
E7
E7
E7
7E
3C
ENDCHAR

STARTCHAR K
ENCODING 75
SWIDTH 592 0
DWIDTH 11 0
BBX 11 14 1 0
BITMAP
E0E0
E1C0
E380
E700
EE00
FC00
FC00
FE00
E700
E700
E380
E380
E1C0
E1C0
ENDCHAR

STARTCHAR L
ENCODING 76
SWIDTH 501 0
DWIDTH 10 0
BBX 8 14 1 0
BITMAP
E0
E0
E0
E0
E0
E0
E0
E0
E0
E0
E0
E0
FF
FF
ENDCHAR

STARTCHAR M
ENCODING 77
SWIDTH 683 0
DWIDTH 13 0
BBX 11 14 1 0
BITMAP
E0E0
F1E0
F1E0
F1E0
FBE0
DB60
DB60
DB60
DB60
DF60
CE60
CE60
CE60
CE60
ENDCHAR

STARTCHAR N
ENCODING 78
SWIDTH 592 0
DWIDTH 11 0
BBX 9 14 1 0
BITMAP
C180
E180
E180
F180
F180
F980
DD80
DD80
CF80
C780
C780
C380
C380
C180
ENDCHAR

STARTCHAR O
ENCODING 79
SWIDTH 638 0
DWIDTH 12 0
BBX 10 14 1 0
BITMAP
1E00
3F00
7380
7380
E1C0
E1C0
E1C0
E1C0
E1C0
E1C0
7380
7380
3F00
1E00
ENDCHAR

STARTCHAR P
ENCODING 80
SWIDTH 547 0
DWIDTH 10 0
BBX 9 14 1 0
BITMAP
FE00
FF00
E380
E380
E380
E380
FF00
FE00
E000
E000
E000
E000
E000
E000
ENDCHAR

STARTCHAR Q
ENCODING 81
SWIDTH 638 0
DWIDTH 12 0
BBX 10 15 1 -1
BITMAP
1E00
3F00
7380
7380
E1C0
E1C0
E1C0
E1C0
E1C0
E1C0
7780
7380
3F80
1FC0
00C0
ENDCHAR

STARTCHAR R
ENCODING 82
SWIDTH 592 0
DWIDTH 11 0
BBX 10 14 1 0
BITMAP
FE00
FF00
E380
E380
E380
E380
FF00
FC00
EE00
E700
E700
E380
E380
E1C0
ENDCHAR

STARTCHAR S
ENCODING 83
SWIDTH 547 0
DWIDTH 10 0
BBX 8 14 1 0
BITMAP
3C
7E
E7
E7
E0
F0
7C
3E
0F
07
E7
E7
7E
3C
ENDCHAR

STARTCHAR T
ENCODING 84
SWIDTH 501 0
DWIDTH 9 0
BBX 9 14 0 0
BITMAP
FF80
FF80
1C00
1C00
1C00
1C00
1C00
1C00
1C00
1C00
1C00
1C00
1C00
1C00
ENDCHAR

STARTCHAR U
ENCODING 85
SWIDTH 592 0
DWIDTH 11 0
BBX 9 14 1 0
BITMAP
E380
E380
E380
E380
E380
E380
E380
E380
E380
E380
E380
E380
7F00
3E00
ENDCHAR

STARTCHAR V
ENCODING 86
SWIDTH 547 0
DWIDTH 10 0
BBX 10 14 0 0
BITMAP
E1C0
E1C0
E1C0
7380
7380
7380
3300
3300
3300
3F00
3F00
1E00
1E00
1E00
ENDCHAR

STARTCHAR W
ENCODING 87
SWIDTH 774 0
DWIDTH 15 0
BBX 15 14 0 0
BITMAP
E38E
E38E
E38E
67CC
66CC
76DC
36D8
36D8
3EF8
3C78
3C78
1C70
1C70
1C70
ENDCHAR

STARTCHAR X
ENCODING 88
SWIDTH 547 0
DWIDTH 10 0
BBX 10 14 0 0
BITMAP
E1C0
71C0
7380
3B80
1B00
1F00
0E00
0E00
1F00
3B00
3380
7380
E1C0
E1C0
ENDCHAR

STARTCHAR Y
ENCODING 89
SWIDTH 547 0
DWIDTH 11 0
BBX 11 14 0 0
BITMAP
E0E0
E0E0
71C0
71C0
3B80
1B00
1F00
0E00
0E00
0E00
0E00
0E00
0E00
0E00
ENDCHAR

STARTCHAR Z
ENCODING 90
SWIDTH 501 0
DWIDTH 10 0
BBX 8 14 1 0
BITMAP
FF
FF
07
0E
0E
1C
1C
38
38
70
70
E0
FF
FF
ENDCHAR

STARTCHAR bracketleft
ENCODING 91
SWIDTH 273 0
DWIDTH 5 0
BBX 4 18 1 -4
BITMAP
F0
F0
E0
E0
E0
E0
E0
E0
E0
E0
E0
E0
E0
E0
E0
E0
F0
F0
ENDCHAR

STARTCHAR backslash
ENCODING 92
SWIDTH 228 0
DWIDTH 4 0
BBX 4 15 0 -1
BITMAP
C0
C0
C0
C0
C0
60
60
60
60
60
30
30
30
30
30
ENDCHAR

STARTCHAR bracketright
ENCODING 93
SWIDTH 273 0
DWIDTH 5 0
BBX 4 18 1 -4
BITMAP
F0
F0
70
70
70
70
70
70
70
70
70
70
70
70
70
70
F0
F0
ENDCHAR

STARTCHAR asciicircum
ENCODING 94
SWIDTH 479 0
DWIDTH 9 0
BBX 7 8 1 6
BITMAP
18
38
38
6C
6C
6C
C6
C6
ENDCHAR

STARTCHAR underscore
ENCODING 95
SWIDTH 456 0
DWIDTH 9 0
BBX 10 2 -1 -3
BITMAP
FFC0
FFC0
ENDCHAR

STARTCHAR quoteleft
ENCODING 96
SWIDTH 228 0
DWIDTH 4 0
BBX 3 6 0 8
BITMAP
60
C0
C0
E0
E0
E0
ENDCHAR

STARTCHAR a
ENCODING 97
SWIDTH 456 0
DWIDTH 9 0
BBX 8 10 1 0
BITMAP
7C
FE
CE
0E
3E
7E
CE
CE
FE
77
ENDCHAR

STARTCHAR b
ENCODING 98
SWIDTH 501 0
DWIDTH 10 0
BBX 8 14 1 0
BITMAP
E0
E0
E0
E0
EC
FE
F7
E7
E7
E7
E7
F7
FE
EC
ENDCHAR

STARTCHAR c
ENCODING 99
SWIDTH 456 0
DWIDTH 9 0
BBX 8 10 1 0
BITMAP
3C
7E
E7
E0
E0
E0
E0
E7
7E
3C
ENDCHAR

STARTCHAR d
ENCODING 100
SWIDTH 501 0
DWIDTH 10 0
BBX 8 14 1 0
BITMAP
07
07
07
07
37
7F
EF
E7
E7
E7
E7
EF
7F
37
ENDCHAR

STARTCHAR e
ENCODING 101
SWIDTH 456 0
DWIDTH 9 0
BBX 7 10 1 0
BITMAP
38
7C
E6
E6
FE
FE
E0
E6
7C
38
ENDCHAR

STARTCHAR f
ENCODING 102
SWIDTH 273 0
DWIDTH 5 0
BBX 5 14 0 0
BITMAP
38
78
70
70
F8
F8
70
70
70
70
70
70
70
70
ENDCHAR

STARTCHAR g
ENCODING 103
SWIDTH 501 0
DWIDTH 10 0
BBX 8 14 1 -4
BITMAP
37
7F
EF
E7
E7
E7
E7
EF
7F
37
07
E7
7E
3C
ENDCHAR

STARTCHAR h
ENCODING 104
SWIDTH 501 0
DWIDTH 10 0
BBX 8 14 1 0
BITMAP
E0
E0
E0
E0
EE
FF
F7
E7
E7
E7
E7
E7
E7
E7
ENDCHAR

STARTCHAR i
ENCODING 105
SWIDTH 228 0
DWIDTH 5 0
BBX 3 14 1 0
BITMAP
E0
E0
E0
00
E0
E0
E0
E0
E0
E0
E0
E0
E0
E0
ENDCHAR

STARTCHAR j
ENCODING 106
SWIDTH 228 0
DWIDTH 5 0
BBX 5 18 -1 -4
BITMAP
38
38
38
00
38
38
38
38
38
38
38
38
38
38
38
38
F8
F0
ENDCHAR

STARTCHAR k
ENCODING 107
SWIDTH 456 0
DWIDTH 9 0
BBX 8 14 1 0
BITMAP
E0
E0
E0
E0
E7
EE
FC
F8
FC
FC
EE
EE
E7
E7
ENDCHAR

STARTCHAR l
ENCODING 108
SWIDTH 228 0
DWIDTH 5 0
BBX 3 14 1 0
BITMAP
E0
E0
E0
E0
E0
E0
E0
E0
E0
E0
E0
E0
E0
E0
ENDCHAR

STARTCHAR m
ENCODING 109
SWIDTH 729 0
DWIDTH 13 0
BBX 11 10 1 0
BITMAP
D9C0
FFE0
EEE0
EEE0
EEE0
EEE0
EEE0
EEE0
EEE0
EEE0
ENDCHAR

STARTCHAR n
ENCODING 110
SWIDTH 501 0
DWIDTH 10 0
BBX 8 10 1 0
BITMAP
EE
FF
F7
E7
E7
E7
E7
E7
E7
E7
ENDCHAR

STARTCHAR o
ENCODING 111
SWIDTH 501 0
DWIDTH 10 0
BBX 8 10 1 0
BITMAP
3C
7E
E7
E7
E7
E7
E7
E7
7E
3C
ENDCHAR

STARTCHAR p
ENCODING 112
SWIDTH 501 0
DWIDTH 10 0
BBX 8 14 1 -4
BITMAP
EC
FE
F7
E7
E7
E7
E7
F7
FE
EC
E0
E0
E0
E0
ENDCHAR

STARTCHAR q
ENCODING 113
SWIDTH 501 0
DWIDTH 10 0
BBX 8 14 1 -4
BITMAP
37
7F
EF
E7
E7
E7
E7
EF
7F
37
07
07
07
07
ENDCHAR

STARTCHAR r
ENCODING 114
SWIDTH 319 0
DWIDTH 6 0
BBX 6 10 1 0
BITMAP
EC
FC
F0
E0
E0
E0
E0
E0
E0
E0
ENDCHAR

STARTCHAR s
ENCODING 115
SWIDTH 456 0
DWIDTH 9 0
BBX 7 10 1 0
BITMAP
3C
7E
E6
F0
7C
1E
0E
CE
FC
78
ENDCHAR

STARTCHAR t
ENCODING 116
SWIDTH 273 0
DWIDTH 5 0
BBX 5 14 0 0
BITMAP
70
70
70
70
F8
F8
70
70
70
70
70
70
78
38
ENDCHAR

STARTCHAR u
ENCODING 117
SWIDTH 501 0
DWIDTH 10 0
BBX 8 10 1 0
BITMAP
E7
E7
E7
E7
E7
E7
E7
EF
FF
77
ENDCHAR

STARTCHAR v
ENCODING 118
SWIDTH 456 0
DWIDTH 9 0
BBX 9 10 0 0
BITMAP
E380
E380
6300
7700
3600
3600
3E00
1C00
1C00
1C00
ENDCHAR

STARTCHAR w
ENCODING 119
SWIDTH 638 0
DWIDTH 12 0
BBX 12 10 0 0
BITMAP
E670
E670
6F60
6F60
6F60
6F60
39C0
39C0
39C0
39C0
ENDCHAR

STARTCHAR x
ENCODING 120
SWIDTH 456 0
DWIDTH 9 0
BBX 9 10 0 0
BITMAP
E380
7700
7700
3E00
1C00
1C00
3E00
7700
7700
E380
ENDCHAR

STARTCHAR y
ENCODING 121
SWIDTH 456 0
DWIDTH 9 0
BBX 9 14 0 -4
BITMAP
E380
E380
6300
7700
7600
3600
3600
3C00
1C00
1C00
1800
1800
7800
7000
ENDCHAR

STARTCHAR z
ENCODING 122
SWIDTH 410 0
DWIDTH 6 0
BBX 6 10 0 0
BITMAP
FC
FC
1C
38
38
70
70
E0
FC
FC
ENDCHAR

STARTCHAR braceleft
ENCODING 123
SWIDTH 319 0
DWIDTH 6 0
BBX 6 18 0 -4
BITMAP
1C
3C
30
30
30
30
30
70
E0
E0
70
30
30
30
30
30
3C
1C
ENDCHAR

STARTCHAR bar
ENCODING 124
SWIDTH 230 0
DWIDTH 4 0
BBX 2 18 1 -4
BITMAP
C0
C0
C0
C0
C0
C0
C0
C0
C0
C0
C0
C0
C0
C0
C0
C0
C0
C0
ENDCHAR

STARTCHAR braceright
ENCODING 125
SWIDTH 319 0
DWIDTH 6 0
BBX 6 18 0 -4
BITMAP
E0
F0
30
30
30
30
30
38
1C
1C
38
30
30
30
30
30
F0
E0
ENDCHAR

STARTCHAR asciitilde
ENCODING 126
SWIDTH 479 0
DWIDTH 9 0
BBX 8 4 1 5
BITMAP
63
F7
FF
CE
ENDCHAR

STARTCHAR space
ENCODING 160
SWIDTH 228 0
DWIDTH 5 0
BBX 0 0 0 0
BITMAP
ENDCHAR

STARTCHAR exclamdown
ENCODING 161
SWIDTH 273 0
DWIDTH 5 0
BBX 2 14 2 -4
BITMAP
C0
C0
C0
00
C0
C0
C0
C0
C0
C0
C0
C0
C0
C0
ENDCHAR

STARTCHAR cent
ENCODING 162
SWIDTH 456 0
DWIDTH 9 0
BBX 8 18 1 -4
BITMAP
04
04
04
04
3E
7F
EB
C8
D0
D0
D3
F7
7E
3C
20
20
40
40
ENDCHAR

STARTCHAR sterling
ENCODING 163
SWIDTH 456 0
DWIDTH 9 0
BBX 8 14 1 0
BITMAP
1E
3F
73
63
60
30
FC
FC
30
30
60
FD
FF
CE
ENDCHAR

STARTCHAR currency
ENCODING 164
SWIDTH 456 0
DWIDTH 9 0
BBX 9 10 0 2
BITMAP
4100
FF80
7F00
7700
6300
6300
7700
7F00
FF80
4100
ENDCHAR

STARTCHAR yen
ENCODING 165
SWIDTH 456 0
DWIDTH 9 0
BBX 8 14 1 0
BITMAP
E7
E7
66
66
3C
3C
FF
FF
18
FF
FF
18
18
18
ENDCHAR

STARTCHAR brokenbar
ENCODING 166
SWIDTH 230 0
DWIDTH 4 0
BBX 2 18 1 -4
BITMAP
C0
C0
C0
C0
C0
C0
C0
00
00
00
00
C0
C0
C0
C0
C0
C0
C0
ENDCHAR

STARTCHAR section
ENCODING 167
SWIDTH 456 0
DWIDTH 9 0
BBX 7 18 1 -4
BITMAP
3C
7E
E6
E0
70
38
7C
EE
EE
EE
7C
3C
1C
0E
EE
EE
7C
38
ENDCHAR

STARTCHAR dieresis
ENCODING 168
SWIDTH 273 0
DWIDTH 5 0
BBX 5 2 0 12
BITMAP
D8
D8
ENDCHAR

STARTCHAR copyright
ENCODING 169
SWIDTH 604 0
DWIDTH 11 0
BBX 11 14 0 0
BITMAP
1F00
3F80
60C0
6EC0
DF60
D960
D860
D860
D960
DF60
6EC0
60C0
3F80
1F00
ENDCHAR

STARTCHAR ordfeminine
ENCODING 170
SWIDTH 303 0
DWIDTH 6 0
BBX 5 7 1 7
BITMAP
70
F8
18
78
D8
F8
D8
ENDCHAR

STARTCHAR guillemotleft
ENCODING 171
SWIDTH 456 0
DWIDTH 9 0
BBX 7 9 1 0
BITMAP
36
6C
6C
D8
D8
D8
6C
6C
36
ENDCHAR

STARTCHAR logicalnot
ENCODING 172
SWIDTH 479 0
DWIDTH 9 0
BBX 8 6 1 4
BITMAP
FF
FF
03
03
03
03
ENDCHAR

STARTCHAR hyphen
ENCODING 173
SWIDTH 273 0
DWIDTH 5 0
BBX 4 2 1 10
BITMAP
F0
F0
ENDCHAR

STARTCHAR registered
ENCODING 174
SWIDTH 604 0
DWIDTH 11 0
BBX 11 14 0 0
BITMAP
1F00
3F80
60C0
7CC0
DE60
DB60
DB60
DE60
DF60
DB60
7BC0
60C0
3F80
1F00
ENDCHAR

STARTCHAR macron
ENCODING 175
SWIDTH 273 0
DWIDTH 5 0
BBX 5 2 0 11
BITMAP
F8
F8
ENDCHAR

STARTCHAR degree
ENCODING 176
SWIDTH 328 0
DWIDTH 6 0
BBX 5 6 1 8
BITMAP
70
F8
D8
D8
F8
70
ENDCHAR

STARTCHAR plusminus
ENCODING 177
SWIDTH 479 0
DWIDTH 9 0
BBX 8 13 1 1
BITMAP
18
18
18
18
FF
FF
18
18
18
18
00
FF
FF
ENDCHAR

STARTCHAR twosuperior
ENCODING 178
SWIDTH 273 0
DWIDTH 5 0
BBX 4 7 1 7
BITMAP
60
F0
B0
30
60
F0
F0
ENDCHAR

STARTCHAR threesuperior
ENCODING 179
SWIDTH 273 0
DWIDTH 5 0
BBX 4 7 1 7
BITMAP
E0
F0
30
60
30
F0
E0
ENDCHAR

STARTCHAR acute
ENCODING 180
SWIDTH 273 0
DWIDTH 5 0
BBX 4 3 1 11
BITMAP
30
60
C0
ENDCHAR

STARTCHAR mu
ENCODING 181
SWIDTH 501 0
DWIDTH 10 0
BBX 7 14 2 -4
BITMAP
C6
C6
C6
C6
C6
C6
C6
EE
FE
DA
C0
C0
C0
C0
ENDCHAR

STARTCHAR paragraph
ENCODING 182
SWIDTH 456 0
DWIDTH 9 0
BBX 9 17 0 -3
BITMAP
3F80
7F80
FB00
FB00
FB00
FB00
7B00
1B00
1B00
1B00
1B00
1B00
1B00
1B00
1B00
1B00
1B00
ENDCHAR

STARTCHAR periodcentered
ENCODING 183
SWIDTH 228 0
DWIDTH 4 0
BBX 2 3 1 5
BITMAP
C0
C0
C0
ENDCHAR

STARTCHAR cedilla
ENCODING 184
SWIDTH 273 0
DWIDTH 5 0
BBX 5 4 0 -4
BITMAP
70
18
38
F0
ENDCHAR

STARTCHAR onesuperior
ENCODING 185
SWIDTH 273 0
DWIDTH 5 0
BBX 3 7 1 7
BITMAP
20
60
E0
E0
60
60
60
ENDCHAR

STARTCHAR ordmasculine
ENCODING 186
SWIDTH 299 0
DWIDTH 6 0
BBX 6 7 0 7
BITMAP
30
78
CC
CC
CC
78
30
ENDCHAR

STARTCHAR guillemotright
ENCODING 187
SWIDTH 456 0
DWIDTH 9 0
BBX 7 9 1 0
BITMAP
D8
6C
6C
36
36
36
6C
6C
D8
ENDCHAR

STARTCHAR onequarter
ENCODING 188
SWIDTH 684 0
DWIDTH 13 0
BBX 11 15 1 -1
BITMAP
2180
6300
E300
E300
6600
6600
6C00
0C00
18C0
19C0
33C0
36C0
37E0
67E0
60C0
ENDCHAR

STARTCHAR onehalf
ENCODING 189
SWIDTH 684 0
DWIDTH 13 0
BBX 11 15 1 -1
BITMAP
2180
6300
E300
E300
6600
6600
6C00
0C00
18C0
19E0
3160
3060
30C0
61E0
61E0
ENDCHAR

STARTCHAR threequarters
ENCODING 190
SWIDTH 684 0
DWIDTH 13 0
BBX 11 15 1 -1
BITMAP
E180
F300
3300
6300
3600
F600
EC00
0C00
18C0
19C0
33C0
36C0
37E0
67E0
60C0
ENDCHAR

STARTCHAR questiondown
ENCODING 191
SWIDTH 501 0
DWIDTH 10 0
BBX 8 14 1 -4
BITMAP
18
18
18
00
18
38
30
70
E0
C0
C3
E7
7E
3C
ENDCHAR

STARTCHAR Agrave
ENCODING 192
SWIDTH 592 0
DWIDTH 11 0
BBX 11 18 0 0
BITMAP
1800
0C00
0600
0000
0E00
0E00
0F00
1F00
1B00
1B80
3B80
3180
31C0
7FC0
7FC0
60E0
E0E0
E0E0
ENDCHAR

STARTCHAR Aacute
ENCODING 193
SWIDTH 592 0
DWIDTH 11 0
BBX 11 18 0 0
BITMAP
0300
0600
0C00
0000
0E00
0E00
0F00
1F00
1B00
1B80
3B80
3180
31C0
7FC0
7FC0
60E0
E0E0
E0E0
ENDCHAR

STARTCHAR Acircumflex
ENCODING 194
SWIDTH 592 0
DWIDTH 11 0
BBX 11 18 0 0
BITMAP
0400
0E00
1B00
0000
0E00
0E00
0F00
1F00
1B00
1B80
3B80
3180
31C0
7FC0
7FC0
60E0
E0E0
E0E0
ENDCHAR

STARTCHAR Atilde
ENCODING 195
SWIDTH 592 0
DWIDTH 11 0
BBX 11 18 0 0
BITMAP
1900
3F00
2600
0000
0E00
0E00
0F00
1F00
1B00
1B80
3B80
3180
31C0
7FC0
7FC0
60E0
E0E0
E0E0
ENDCHAR

STARTCHAR Adieresis
ENCODING 196
SWIDTH 592 0
DWIDTH 11 0
BBX 11 17 0 0
BITMAP
1B00
1B00
0000
0E00
0E00
0F00
1F00
1B00
1B80
3B80
3180
31C0
7FC0
7FC0
60E0
E0E0
E0E0
ENDCHAR

STARTCHAR Aring
ENCODING 197
SWIDTH 592 0
DWIDTH 11 0
BBX 11 18 0 0
BITMAP
0E00
1B00
1B00
0A00
0E00
0E00
0F00
1F00
1B00
1B80
3B80
3180
31C0
7FC0
7FC0
60E0
E0E0
E0E0
ENDCHAR

STARTCHAR AE
ENCODING 198
SWIDTH 820 0
DWIDTH 16 0
BBX 15 14 1 0
BITMAP
07FE
0FFE
0FC0
1DC0
1DC0
1DC0
39FC
39FC
71C0
7FC0
7FC0
71C0
E1FE
E1FE
ENDCHAR

STARTCHAR Ccedilla
ENCODING 199
SWIDTH 592 0
DWIDTH 11 0
BBX 9 18 1 -4
BITMAP
1E00
3F00
7380
7380
E000
E000
E000
E000
E000
E000
7380
7380
3F00
1E00
0C00
0600
0600
1C00
ENDCHAR

STARTCHAR Egrave
ENCODING 200
SWIDTH 547 0
DWIDTH 10 0
BBX 8 18 1 0
BITMAP
60
30
18
00
FF
FF
E0
E0
E0
E0
FF
FF
E0
E0
E0
E0
FF
FF
ENDCHAR

STARTCHAR Eacute
ENCODING 201
SWIDTH 547 0
DWIDTH 10 0
BBX 8 18 1 0
BITMAP
06
0C
18
00
FF
FF
E0
E0
E0
E0
FF
FF
E0
E0
E0
E0
FF
FF
ENDCHAR

STARTCHAR Ecircumflex
ENCODING 202
SWIDTH 547 0
DWIDTH 10 0
BBX 8 18 1 0
BITMAP
18
3C
66
00
FF
FF
E0
E0
E0
E0
FF
FF
E0
E0
E0
E0
FF
FF
ENDCHAR

STARTCHAR Edieresis
ENCODING 203
SWIDTH 547 0
DWIDTH 10 0
BBX 8 17 1 0
BITMAP
6C
6C
00
FF
FF
E0
E0
E0
E0
FF
FF
E0
E0
E0
E0
FF
FF
ENDCHAR

STARTCHAR Igrave
ENCODING 204
SWIDTH 228 0
DWIDTH 5 0
BBX 4 18 0 0
BITMAP
C0
60
30
00
70
70
70
70
70
70
70
70
70
70
70
70
70
70
ENDCHAR

STARTCHAR Iacute
ENCODING 205
SWIDTH 228 0
DWIDTH 5 0
BBX 4 18 1 0
BITMAP
30
60
C0
00
E0
E0
E0
E0
E0
E0
E0
E0
E0
E0
E0
E0
E0
E0
ENDCHAR

STARTCHAR Icircumflex
ENCODING 206
SWIDTH 228 0
DWIDTH 5 0
BBX 5 18 0 0
BITMAP
20
70
D8
00
70
70
70
70
70
70
70
70
70
70
70
70
70
70
ENDCHAR

STARTCHAR Idieresis
ENCODING 207
SWIDTH 228 0
DWIDTH 5 0
BBX 5 17 0 0
BITMAP
D8
D8
00
70
70
70
70
70
70
70
70
70
70
70
70
70
70
ENDCHAR

STARTCHAR Gbreve
ENCODING 208
SWIDTH 641 0
DWIDTH 12 0
BBX 10 18 1 0
BITMAP
3180
3F80
1F00
0000
1F00
3F80
71C0
71C0
E000
E000
E000
E7C0
E7C0
E1C0
71C0
71C0
3F80
1F00
ENDCHAR

STARTCHAR Ntilde
ENCODING 209
SWIDTH 592 0
DWIDTH 11 0
BBX 9 18 1 0
BITMAP
1900
3F00
2600
0000
C180
E180
E180
F180
F180
F980
DD80
DD80
CF80
C780
C780
C380
C380
C180
ENDCHAR

STARTCHAR Ograve
ENCODING 210
SWIDTH 638 0
DWIDTH 12 0
BBX 10 18 1 0
BITMAP
3000
1800
0C00
0000
1E00
3F00
7380
7380
E1C0
E1C0
E1C0
E1C0
E1C0
E1C0
7380
7380
3F00
1E00
ENDCHAR

STARTCHAR Oacute
ENCODING 211
SWIDTH 638 0
DWIDTH 12 0
BBX 10 18 1 0
BITMAP
0300
0600
0C00
0000
1E00
3F00
7380
7380
E1C0
E1C0
E1C0
E1C0
E1C0
E1C0
7380
7380
3F00
1E00
ENDCHAR

STARTCHAR Ocircumflex
ENCODING 212
SWIDTH 638 0
DWIDTH 12 0
BBX 10 18 1 0
BITMAP
0C00
1E00
3300
0000
1E00
3F00
7380
7380
E1C0
E1C0
E1C0
E1C0
E1C0
E1C0
7380
7380
3F00
1E00
ENDCHAR

STARTCHAR Otilde
ENCODING 213
SWIDTH 638 0
DWIDTH 12 0
BBX 10 18 1 0
BITMAP
1900
3F00
2600
0000
1E00
3F00
7380
7380
E1C0
E1C0
E1C0
E1C0
E1C0
E1C0
7380
7380
3F00
1E00
ENDCHAR

STARTCHAR Odieresis
ENCODING 214
SWIDTH 638 0
DWIDTH 12 0
BBX 10 17 1 0
BITMAP
3300
3300
0000
1E00
3F00
7380
7380
E1C0
E1C0
E1C0
E1C0
E1C0
E1C0
7380
7380
3F00
1E00
ENDCHAR

STARTCHAR multiply
ENCODING 215
SWIDTH 479 0
DWIDTH 9 0
BBX 7 9 1 2
BITMAP
C6
EE
EE
7C
38
7C
EE
EE
C6
ENDCHAR

STARTCHAR Oslash
ENCODING 216
SWIDTH 638 0
DWIDTH 12 0
BBX 10 14 1 0
BITMAP
1EC0
3F80
7380
7780
E7C0
EDC0
EDC0
EDC0
F9C0
F9C0
7380
7380
FF00
DE00
ENDCHAR

STARTCHAR Ugrave
ENCODING 217
SWIDTH 592 0
DWIDTH 11 0
BBX 9 18 1 0
BITMAP
3000
1800
0C00
0000
E380
E380
E380
E380
E380
E380
E380
E380
E380
E380
E380
E380
7F00
3E00
ENDCHAR

STARTCHAR Uacute
ENCODING 218
SWIDTH 592 0
DWIDTH 11 0
BBX 9 18 1 0
BITMAP
0600
0C00
1800
0000
E380
E380
E380
E380
E380
E380
E380
E380
E380
E380
E380
E380
7F00
3E00
ENDCHAR

STARTCHAR Ucircumflex
ENCODING 219
SWIDTH 592 0
DWIDTH 11 0
BBX 9 18 1 0
BITMAP
0800
1C00
3600
0000
E380
E380
E380
E380
E380
E380
E380
E380
E380
E380
E380
E380
7F00
3E00
ENDCHAR

STARTCHAR Udieresis
ENCODING 220
SWIDTH 592 0
DWIDTH 11 0
BBX 9 17 1 0
BITMAP
3600
3600
0000
E380
E380
E380
E380
E380
E380
E380
E380
E380
E380
E380
E380
7F00
3E00
ENDCHAR

STARTCHAR Idotaccent
ENCODING 221
SWIDTH 228 0
DWIDTH 5 0
BBX 3 18 1 0
BITMAP
E0
E0
E0
00
E0
E0
E0
E0
E0
E0
E0
E0
E0
E0
E0
E0
E0
E0
ENDCHAR

STARTCHAR Scedilla
ENCODING 222
SWIDTH 547 0
DWIDTH 10 0
BBX 8 18 1 -4
BITMAP
3C
7E
E7
E7
E0
F0
7C
3E
0F
07
E7
E7
7E
3C
18
0C
0C
38
ENDCHAR

STARTCHAR germandbls
ENCODING 223
SWIDTH 501 0
DWIDTH 10 0
BBX 9 14 1 0
BITMAP
7C00
FE00
EF00
E700
E700
EE00
EE00
EF00
E780
E380
E380
E780
EF00
EE00
ENDCHAR

STARTCHAR agrave
ENCODING 224
SWIDTH 456 0
DWIDTH 9 0
BBX 8 14 1 0
BITMAP
60
30
18
00
7C
FE
CE
0E
3E
7E
CE
CE
FE
77
ENDCHAR

STARTCHAR aacute
ENCODING 225
SWIDTH 456 0
DWIDTH 9 0
BBX 8 14 1 0
BITMAP
0C
18
30
00
7C
FE
CE
0E
3E
7E
CE
CE
FE
77
ENDCHAR

STARTCHAR acircumflex
ENCODING 226
SWIDTH 456 0
DWIDTH 9 0
BBX 8 14 1 0
BITMAP
18
3C
66
00
7C
FE
CE
0E
3E
7E
CE
CE
FE
77
ENDCHAR

STARTCHAR atilde
ENCODING 227
SWIDTH 456 0
DWIDTH 9 0
BBX 8 14 1 0
BITMAP
64
FC
98
00
7C
FE
CE
0E
3E
7E
CE
CE
FE
77
ENDCHAR

STARTCHAR adieresis
ENCODING 228
SWIDTH 456 0
DWIDTH 9 0
BBX 8 13 1 0
BITMAP
6C
6C
00
7C
FE
CE
0E
3E
7E
CE
CE
FE
77
ENDCHAR

STARTCHAR aring
ENCODING 229
SWIDTH 456 0
DWIDTH 9 0
BBX 8 15 1 0
BITMAP
38
6C
6C
38
00
7C
FE
CE
0E
3E
7E
CE
CE
FE
77
ENDCHAR

STARTCHAR ae
ENCODING 230
SWIDTH 729 0
DWIDTH 14 0
BBX 12 10 1 0
BITMAP
7DC0
FFE0
CF30
0E30
3FF0
7FF0
CE00
CF30
FFE0
75C0
ENDCHAR

STARTCHAR ccedilla
ENCODING 231
SWIDTH 456 0
DWIDTH 9 0
BBX 8 14 1 -4
BITMAP
3C
7E
E7
E0
E0
E0
E0
E7
7E
3C
18
0C
0C
38
ENDCHAR

STARTCHAR egrave
ENCODING 232
SWIDTH 456 0
DWIDTH 9 0
BBX 7 14 1 0
BITMAP
60
30
18
00
38
7C
E6
E6
FE
FE
E0
E6
7C
38
ENDCHAR

STARTCHAR eacute
ENCODING 233
SWIDTH 456 0
DWIDTH 9 0
BBX 7 14 1 0
BITMAP
0C
18
30
00
38
7C
E6
E6
FE
FE
E0
E6
7C
38
ENDCHAR

STARTCHAR ecircumflex
ENCODING 234
SWIDTH 456 0
DWIDTH 9 0
BBX 7 14 1 0
BITMAP
10
38
6C
00
38
7C
E6
E6
FE
FE
E0
E6
7C
38
ENDCHAR

STARTCHAR edieresis
ENCODING 235
SWIDTH 456 0
DWIDTH 9 0
BBX 7 13 1 0
BITMAP
6C
6C
00
38
7C
E6
E6
FE
FE
E0
E6
7C
38
ENDCHAR

STARTCHAR igrave
ENCODING 236
SWIDTH 228 0
DWIDTH 5 0
BBX 4 14 0 0
BITMAP
C0
60
30
00
70
70
70
70
70
70
70
70
70
70
ENDCHAR

STARTCHAR iacute
ENCODING 237
SWIDTH 228 0
DWIDTH 5 0
BBX 4 14 1 0
BITMAP
30
60
C0
00
E0
E0
E0
E0
E0
E0
E0
E0
E0
E0
ENDCHAR

STARTCHAR icircumflex
ENCODING 238
SWIDTH 228 0
DWIDTH 5 0
BBX 5 14 0 0
BITMAP
20
70
D8
00
70
70
70
70
70
70
70
70
70
70
ENDCHAR

STARTCHAR idieresis
ENCODING 239
SWIDTH 228 0
DWIDTH 5 0
BBX 5 13 0 0
BITMAP
D8
D8
00
70
70
70
70
70
70
70
70
70
70
ENDCHAR

STARTCHAR gbreve
ENCODING 240
SWIDTH 501 0
DWIDTH 10 0
BBX 8 18 1 -4
BITMAP
63
7F
3E
00
37
7F
EF
E7
E7
E7
E7
EF
7F
37
07
E7
7E
3C
ENDCHAR

STARTCHAR ntilde
ENCODING 241
SWIDTH 501 0
DWIDTH 10 0
BBX 8 14 1 0
BITMAP
32
7E
4C
00
EE
FF
F7
E7
E7
E7
E7
E7
E7
E7
ENDCHAR

STARTCHAR ograve
ENCODING 242
SWIDTH 501 0
DWIDTH 10 0
BBX 8 14 1 0
BITMAP
60
30
18
00
3C
7E
E7
E7
E7
E7
E7
E7
7E
3C
ENDCHAR

STARTCHAR oacute
ENCODING 243
SWIDTH 501 0
DWIDTH 10 0
BBX 8 14 1 0
BITMAP
06
0C
18
00
3C
7E
E7
E7
E7
E7
E7
E7
7E
3C
ENDCHAR

STARTCHAR ocircumflex
ENCODING 244
SWIDTH 501 0
DWIDTH 10 0
BBX 8 14 1 0
BITMAP
18
3C
66
00
3C
7E
E7
E7
E7
E7
E7
E7
7E
3C
ENDCHAR

STARTCHAR otilde
ENCODING 245
SWIDTH 501 0
DWIDTH 10 0
BBX 8 14 1 0
BITMAP
32
7E
4C
00
3C
7E
E7
E7
E7
E7
E7
E7
7E
3C
ENDCHAR

STARTCHAR odieresis
ENCODING 246
SWIDTH 501 0
DWIDTH 10 0
BBX 8 13 1 0
BITMAP
66
66
00
3C
7E
E7
E7
E7
E7
E7
E7
7E
3C
ENDCHAR

STARTCHAR divide
ENCODING 247
SWIDTH 479 0
DWIDTH 9 0
BBX 8 10 1 2
BITMAP
18
18
18
00
FF
FF
00
18
18
18
ENDCHAR

STARTCHAR oslash
ENCODING 248
SWIDTH 501 0
DWIDTH 10 0
BBX 10 10 0 0
BITMAP
1EC0
3F80
7780
7780
7780
7B80
7B80
7B80
3F00
DE00
ENDCHAR

STARTCHAR ugrave
ENCODING 249
SWIDTH 501 0
DWIDTH 10 0
BBX 8 14 1 0
BITMAP
60
30
18
00
E7
E7
E7
E7
E7
E7
E7
EF
FF
77
ENDCHAR

STARTCHAR uacute
ENCODING 250
SWIDTH 501 0
DWIDTH 10 0
BBX 8 14 1 0
BITMAP
06
0C
18
00
E7
E7
E7
E7
E7
E7
E7
EF
FF
77
ENDCHAR

STARTCHAR ucircumflex
ENCODING 251
SWIDTH 501 0
DWIDTH 10 0
BBX 8 14 1 0
BITMAP
18
3C
66
00
E7
E7
E7
E7
E7
E7
E7
EF
FF
77
ENDCHAR

STARTCHAR udieresis
ENCODING 252
SWIDTH 501 0
DWIDTH 10 0
BBX 8 13 1 0
BITMAP
66
66
00
E7
E7
E7
E7
E7
E7
E7
EF
FF
77
ENDCHAR

STARTCHAR dotlessi
ENCODING 253
SWIDTH 228 0
DWIDTH 5 0
BBX 3 10 1 0
BITMAP
E0
E0
E0
E0
E0
E0
E0
E0
E0
E0
ENDCHAR

STARTCHAR scedilla
ENCODING 254
SWIDTH 456 0
DWIDTH 9 0
BBX 7 14 1 -4
BITMAP
3C
7E
E6
F0
7C
1E
0E
CE
FC
78
30
18
18
70
ENDCHAR

STARTCHAR ydieresis
ENCODING 255
SWIDTH 456 0
DWIDTH 9 0
BBX 9 17 0 -4
BITMAP
3600
3600
0000
E380
E380
6300
7700
7600
3600
3600
3C00
1C00
1C00
1800
1800
7800
7000
ENDCHAR
ENDFONT
